<svg width="97" height="33" viewBox="0 0 97 33" fill="none" xmlns="http://www.w3.org/2000/svg">
<path d="M8.38271 32.121C5.27658 32.121 2.10491 30.2748 0.264026 27.5128C-0.186221 26.8358 -0.0779336 26.2156 0.722821 25.6837L1.52358 25.1518C2.1277 24.8758 3.0396 25.2229 3.65797 25.9511C4.90612 27.6209 6.61592 28.8156 8.38556 28.8156C11.8792 28.8156 14.3442 26.0421 14.3442 22.1536V1.46216C14.3442 0.725413 14.9426 0.128052 15.6807 0.128052H16.7693C17.5073 0.128052 18.1058 0.725413 18.1058 1.46216V22.1536C18.1058 28.0106 14.0735 32.1238 8.38556 32.1238L8.38271 32.121Z" fill="#F74670"/>
<path d="M22.3633 18.9051C22.3633 12.7352 26.4839 8.35172 32.263 8.35172C34.5028 8.35172 36.9678 9.46964 38.7574 11.8847V8.30621H41.1425C41.8778 8.30621 42.4762 8.90357 42.4762 9.63747V27.8115C42.4762 28.5454 41.8778 29.1427 41.1425 29.1427H38.7574V25.789C36.9193 28.4259 34.5028 29.4101 32.263 29.4101C26.4839 29.4101 22.3633 25.0266 22.3633 18.9023V18.9051ZM38.803 18.9051C38.7574 14.7008 35.7567 11.6173 32.3969 11.6173C28.6781 11.6173 26.0821 14.57 26.0821 18.9051C26.0821 23.2402 28.681 26.1502 32.3969 26.1502C35.7567 26.1502 38.7574 23.1094 38.803 18.9051Z" fill="#F74670"/>
<path d="M62.5065 27.0576L63.1163 27.6265C63.7546 28.221 63.7062 29.2565 63.0023 29.7742C61.1415 31.1424 58.6253 32.0328 56.5422 32.0328C50.3156 32.0328 45.9243 27.6066 45.9243 21.4794C45.9243 15.3522 50.3156 10.926 56.5422 10.926C58.6623 10.926 61.1273 11.8477 62.9909 13.2273C63.6948 13.7478 63.7404 14.789 63.0935 15.3806L62.5065 15.9183C62.0135 16.3705 61.2612 16.4217 60.7283 16.0178C59.5001 15.0791 57.8302 14.5073 56.3598 14.5073C52.4187 14.5073 49.6403 17.3235 49.6403 21.4822C49.6403 25.641 52.4187 28.4571 56.3598 28.4571C57.8245 28.4571 59.4916 27.8882 60.7169 26.9524C61.2526 26.5456 62.0106 26.5996 62.5036 27.0605L62.5065 27.0576Z" fill="#F74670"/>
<path d="M70.8755 1.57021V30.4768C70.8755 31.2107 70.28 31.808 69.5419 31.808H68.4904C67.7552 31.808 67.1567 31.2135 67.1567 30.4768V1.57021C67.1567 0.836311 67.7523 0.238953 68.4904 0.238953H69.5419C70.2771 0.238953 70.8755 0.833467 70.8755 1.57021Z" fill="#F74670"/>
<path d="M81.9924 4.14741C81.6561 5.5953 80.3852 6.51125 78.7637 6.3548C77.4643 6.22964 76.2389 5.00647 76.1136 3.71219C75.9568 2.09363 76.8744 0.824944 78.3249 0.489285C80.4821 -0.0113605 82.4939 1.99407 81.9924 4.15025V4.14741ZM80.9466 12.2573V30.4768C80.9466 31.2107 80.3482 31.8081 79.6129 31.8081H78.5614C77.8262 31.8081 77.2278 31.2107 77.2278 30.4768V12.2573C77.2278 11.5234 77.8262 10.926 78.5614 10.926H79.6129C80.3482 10.926 80.9466 11.5234 80.9466 12.2573Z" fill="#F74670"/>
<path d="M88.2559 10.5079H85.7824C85.0472 10.5079 84.4487 9.9105 84.4487 9.1766V8.53088C84.4487 7.79698 85.0472 7.19962 85.7824 7.19962H88.2559V1.33126C88.2559 0.597363 88.8543 0 89.5895 0H90.6866C91.4218 0 92.0203 0.597363 92.0203 1.33126V7.19962H95.6137C96.3489 7.19962 96.9473 7.79698 96.9473 8.53088V9.1766C96.9473 9.9105 96.3489 10.5079 95.6137 10.5079H92.0203V30.4768C92.0203 31.2107 91.4218 31.808 90.6866 31.808H89.5895C88.8543 31.808 88.2559 31.2107 88.2559 30.4768V10.5079Z" fill="#F74670"/>
</svg>
