<svg width="44" height="44" viewBox="0 0 44 44" fill="none" xmlns="http://www.w3.org/2000/svg">
<path d="M22.3066 23.7549C21.9789 23.7549 21.6739 23.7463 21.4004 23.7378C19.7789 23.6866 16.4078 23.5813 14.4871 20.8961C13.0737 18.9191 12.8913 16.1542 14.0198 13.8557C15.5272 10.7864 19.1007 9.59741 21.9789 9.7823C22.8366 9.83635 27.1966 10.3 28.9178 14.0805C30.1317 16.7487 29.6074 19.9687 27.644 21.9116C26.0026 23.5358 23.8881 23.7577 22.3037 23.7577L22.3066 23.7549ZM15.1397 20.4324C16.8295 22.7962 19.8188 22.8901 21.426 22.9413C22.9876 22.9897 25.3472 23.0636 27.0826 21.3455C28.7867 19.6615 29.2512 16.743 28.1911 14.4104C26.6608 11.0453 22.7084 10.6271 21.9304 10.5788C19.323 10.411 16.0858 11.4691 14.7407 14.2085C13.7547 16.2167 13.9143 18.72 15.1397 20.4352V20.4324Z" fill="#F74670"/>
<path d="M19.118 17.7471C19.4863 17.7471 19.7848 17.4491 19.7848 17.0815C19.7848 16.7138 19.4863 16.4158 19.118 16.4158C18.7497 16.4158 18.4512 16.7138 18.4512 17.0815C18.4512 17.4491 18.7497 17.7471 19.118 17.7471Z" fill="#F74670"/>
<path d="M23.1185 17.7471C23.4868 17.7471 23.7853 17.4491 23.7853 17.0815C23.7853 16.7138 23.4868 16.4158 23.1185 16.4158C22.7502 16.4158 22.4517 16.7138 22.4517 17.0815C22.4517 17.4491 22.7502 17.7471 23.1185 17.7471Z" fill="#F74670"/>
<path d="M20.608 18.5834C20.7448 18.2791 21.6111 18.2791 21.7479 18.5834C21.8533 18.8139 21.594 19.3429 21.1779 19.3429C20.7619 19.3429 20.5026 18.8139 20.608 18.5834Z" fill="#F74670"/>
<path d="M20.1093 20.4665C19.8129 20.4665 19.5451 20.3897 19.3199 20.2389C19.0036 20.0256 18.807 19.6814 18.75 19.2462L19.28 19.1779C19.3171 19.4567 19.4339 19.6729 19.622 19.8009C19.8329 19.9459 20.1264 19.9744 20.4712 19.8891C20.8103 19.8037 20.9157 19.2405 20.9556 19.0272C20.967 18.9646 20.9784 18.9191 20.9841 18.8963L21.4914 19.0584C21.4885 19.0727 21.4828 19.0954 21.4771 19.1267C21.4201 19.4311 21.2691 20.2418 20.5994 20.4068C20.4285 20.4494 20.2632 20.4694 20.1093 20.4694V20.4665Z" fill="#F74670"/>
<path d="M22.4233 20.4239C22.2324 20.4239 22.03 20.3897 21.842 20.3072C21.5427 20.1764 21.1495 19.8692 20.9785 19.1552L21.4972 19.03C21.594 19.434 21.7821 19.6985 22.0557 19.818C22.3635 19.9545 22.714 19.8749 22.8621 19.7924C22.8935 19.7753 23.0502 19.6672 23.1956 19.158L23.2069 19.1211L23.7142 19.2917C23.566 19.8009 23.3694 20.1195 23.1215 20.256C22.9476 20.3528 22.6969 20.421 22.4233 20.421V20.4239Z" fill="#F74670"/>
<path d="M16.5216 11.7906C14.9401 7.89637 14.9657 5.17126 15.1652 3.23126C15.3248 1.66959 15.5413 0.252995 16.4219 0.0766315C17.7926 -0.193603 19.4169 2.83871 19.9327 5.04895C20.4285 7.171 20.5197 9.46657 20.1578 10.63L19.3941 10.3939C19.6676 9.51493 19.6733 7.4583 19.1518 5.231C18.5791 2.77329 17.0516 0.767863 16.5786 0.861734C16.4675 0.884491 16.1825 1.1661 15.9631 3.31376C15.7721 5.15989 15.7494 7.75983 17.2654 11.4919L16.5245 11.7906H16.5216Z" fill="#F74670"/>
<path d="M17.1855 11.1107C16.1511 8.30312 16.0286 6.78127 16.1597 5.36183C16.2708 4.15573 16.419 3.14875 17.0801 3.00368C17.2169 2.97239 17.4306 2.97239 17.6728 3.126C18.4679 3.63802 19.0606 5.56948 19.2857 6.63051C19.6078 8.14951 19.3142 9.74532 19.0122 10.8149L18.2428 10.5987C18.4707 9.79368 18.807 8.22916 18.5021 6.7955C18.1658 5.20822 17.5617 4.01066 17.2625 3.80869C17.1428 3.99644 17.0402 4.54259 16.9576 5.43579C16.835 6.74714 16.9576 8.16658 17.9379 10.8348L17.1855 11.1107Z" fill="#F74670"/>
<path d="M25.8886 11.7308L25.1477 11.4322C26.6637 7.70007 26.6381 5.10013 26.45 3.254C26.2306 1.10919 25.9456 0.824737 25.8345 0.801981C25.3557 0.705265 23.834 2.71353 23.2612 5.17125C22.7426 7.39855 22.7454 9.45518 23.019 10.3341L22.2553 10.5702C21.8934 9.40682 21.9874 7.11125 22.4804 4.98919C22.9962 2.77896 24.6205 -0.253357 25.9912 0.016878C26.8689 0.193242 27.0855 1.607 27.2479 3.17151C27.4474 5.11151 27.473 7.83661 25.8914 11.7308H25.8886Z" fill="#F74670"/>
<path d="M25.2276 11.051L24.4753 10.7751C25.4584 8.10686 25.5781 6.68741 25.4556 5.37607C25.3729 4.48287 25.2704 3.93671 25.1507 3.74897C24.8515 3.95093 24.2473 5.1485 23.9111 6.73577C23.609 8.16944 23.9453 9.73395 24.1704 10.539L23.401 10.7552C23.0989 9.6856 22.8054 8.08979 23.1274 6.57079C23.3525 5.50976 23.9453 3.58114 24.7403 3.06627C24.9825 2.90982 25.1963 2.91266 25.333 2.94395C25.9942 3.08903 26.1423 4.09885 26.2535 5.30211C26.3846 6.72155 26.262 8.2434 25.2276 11.051Z" fill="#F74670"/>
<path d="M16.915 24.9211L16.1143 24.9069C16.1399 23.4875 17.4792 22.5175 17.5362 22.4748L18.0007 23.1262C18.0007 23.1262 16.9321 23.9085 16.9122 24.924L16.915 24.9211Z" fill="#F74670"/>
<path d="M26.1164 24.8329C26.0965 23.8174 25.0392 23.0437 25.0278 23.0352L25.4952 22.3866C25.5522 22.4264 26.8887 23.3964 26.9172 24.8187L26.1164 24.8329Z" fill="#F74670"/>
<path d="M15.2936 32.573C15.134 32.573 14.9744 32.5417 14.8234 32.4763L0.894266 26.5852C0.375628 26.3662 0.0336693 25.8797 0.00232302 25.3165C-0.0290232 24.7533 0.258791 24.2327 0.748933 23.9596L6.26018 20.879L21.7538 26.5681L21.4517 27.3788L21.6227 27.5779L16.0687 32.2886C15.8464 32.4763 15.5729 32.5759 15.2936 32.5759V32.573ZM6.37416 22.3382L1.39866 25.1202C1.35021 25.1458 1.32741 25.1885 1.33026 25.2425C1.33311 25.2966 1.36161 25.3364 1.41005 25.3592L15.2651 31.219L19.8844 27.2992L6.37131 22.3382H6.37416Z" fill="#F74670"/>
<path d="M27.7721 32.8319C27.47 32.8319 27.1708 32.7181 26.9457 32.5019L20.8218 26.6791L36.1159 21.0098L42.7727 24.7732C43.1175 25.0321 43.2971 25.4559 43.2429 25.8826C43.1888 26.3093 42.9066 26.6762 42.5077 26.8384L28.228 32.7409C28.0799 32.8006 27.926 32.829 27.7749 32.829L27.7721 32.8319ZM23.2867 27.1854L27.8006 31.4779L41.744 25.7148L35.9991 22.4719L23.2867 27.1854Z" fill="#F74670"/>
<path d="M20.8618 43.5843V26.9692H22.1955V41.6984L37.3984 36.3136V28.033H38.732V37.2552L20.8618 43.5843Z" fill="#F74670"/>
<path d="M5.25703 37.4059L4.3252 37.0447V27.7657H5.65884V36.1316L5.73863 36.1629L5.65884 36.3677V36.5896H5.57335L5.25703 37.4059Z" fill="#F74670"/>
<path d="M5.22245 35.9705L4.74561 37.2137L21.2828 43.5339L21.7596 42.2907L5.22245 35.9705Z" fill="#F74670"/>
<path d="M13.5415 18.582L6.29932 20.6973L6.59862 21.7184L13.8408 19.603L13.5415 18.582Z" fill="#F74670"/>
<path d="M28.3036 19.2178L28.0522 20.2517L35.9392 22.1622L36.1905 21.1283L28.3036 19.2178Z" fill="#F74670"/>
</svg>
