<?xml version="1.0" encoding="UTF-8"?>
<svg id="Layer_2" data-name="Layer 2" xmlns="http://www.w3.org/2000/svg" viewBox="0 0 326 326">
  <defs>
    <style>
      .cls-1 {
        fill: #e61673;
      }

      .cls-2 {
        fill: #fff;
      }
    </style>
  </defs>
  <g id="_图层_1" data-name="图层 1">
    <circle class="cls-2" cx="163" cy="163" r="163"/>
    <g>
      <path class="cls-1" d="M167.85,171.99c-1.93,0-3.73-.05-5.34-.1-9.57-.3-29.47-.91-40.81-16.64h0c-8.34-11.58-9.42-27.76-2.75-41.24,8.9-17.97,30-24.95,46.98-23.86,5.06.32,30.8,3.04,40.96,25.18,7.17,15.63,4.08,34.49-7.51,45.86-9.69,9.51-22.17,10.81-31.52,10.81ZM125.55,152.53c9.98,13.85,27.63,14.39,37.11,14.69,9.22.29,23.14.71,33.39-9.35,10.05-9.87,12.8-26.95,6.54-40.61-9.04-19.71-32.37-22.15-36.96-22.44-15.39-.98-34.5,5.22-42.43,21.25-5.82,11.77-4.88,26.42,2.36,36.46h0Z"/>
      <ellipse class="cls-1" cx="149.04" cy="132.91" rx="3.94" ry="3.9"/>
      <ellipse class="cls-1" cx="172.65" cy="132.91" rx="3.94" ry="3.9"/>
      <path class="cls-1" d="M157.83,141.7c.81-1.78,5.92-1.78,6.73,0,.62,1.35-.91,4.44-3.37,4.44s-3.98-3.09-3.37-4.44Z"/>
      <path class="cls-1" d="M154.88,152.73c-1.76,0-3.33-.45-4.65-1.34-1.86-1.26-3.03-3.27-3.37-5.81l3.12-.41c.22,1.64.92,2.9,2.02,3.64,1.25.84,2.98,1.02,5.02.52,1.99-.49,2.62-3.8,2.86-5.05.07-.37.13-.64.17-.77l3,.95c-.02.09-.05.22-.08.4-.34,1.78-1.24,6.52-5.19,7.5-1.01.25-1.98.37-2.9.37Z"/>
      <path class="cls-1" d="M168.55,152.49c-1.13,0-2.32-.2-3.44-.69-1.77-.77-4.08-2.56-5.1-6.74l3.06-.73c.57,2.36,1.69,3.91,3.3,4.62,1.82.8,3.89.33,4.76-.15.18-.1,1.1-.73,1.97-3.71l.06-.21,2.99.99c-.87,2.98-2.03,4.85-3.49,5.65-1.02.56-2.51.96-4.11.96Z"/>
      <g>
        <path class="cls-1" d="M133.71,101.92c-9.33-22.81-9.18-38.77-8.01-50.13.95-9.15,2.23-17.44,7.41-18.47,8.09-1.58,17.67,16.18,20.72,29.12,2.92,12.43,3.47,25.87,1.34,32.68l-4.51-1.39c1.61-5.15,1.64-17.19-1.43-30.23-3.38-14.4-12.4-26.14-15.19-25.59-.66.13-2.34,1.79-3.64,14.36-1.12,10.82-1.26,26.04,7.68,47.89l-4.38,1.76Z"/>
        <path class="cls-1" d="M137.62,97.95c-6.1-16.44-6.83-25.35-6.05-33.66.66-7.05,1.53-12.96,5.43-13.81.81-.18,2.07-.19,3.5.72,4.7,3,8.2,14.31,9.52,20.52,1.9,8.9.17,18.24-1.61,24.51l-4.55-1.27c1.34-4.72,3.33-13.88,1.54-22.27-1.98-9.29-5.55-16.31-7.32-17.49-.71,1.1-1.32,4.3-1.81,9.53-.72,7.68-.02,16,5.78,31.62l-4.43,1.61Z"/>
      </g>
      <g>
        <path class="cls-1" d="M189,101.57l-4.38-1.76c8.94-21.86,8.8-37.08,7.68-47.89-1.3-12.57-2.98-14.23-3.64-14.36-2.82-.56-11.8,11.2-15.19,25.59-3.07,13.05-3.04,25.08-1.43,30.23l-4.51,1.39c-2.14-6.81-1.59-20.25,1.34-32.68,3.04-12.94,12.64-30.71,20.72-29.12,5.19,1.02,6.47,9.32,7.41,18.47,1.17,11.36,1.33,27.31-8.01,50.13Z"/>
        <path class="cls-1" d="M185.09,97.6l-4.43-1.61c5.8-15.62,6.5-23.94,5.78-31.62-.49-5.23-1.1-8.43-1.81-9.53-1.77,1.18-5.34,8.2-7.32,17.49-1.79,8.39.19,17.55,1.54,22.27l-4.55,1.27c-1.78-6.27-3.51-15.6-1.61-24.51,1.33-6.21,4.82-17.52,9.52-20.52,1.43-.92,2.7-.9,3.5-.72,3.9.85,4.77,6.76,5.43,13.81.78,8.31.05,17.22-6.05,33.67Z"/>
      </g>
      <path class="cls-1" d="M136.03,178.82l-4.72-.09c.16-8.32,8.05-14,8.39-14.24l2.75,3.81-1.37-1.9,1.38,1.9c-.06.04-6.3,4.58-6.42,10.52Z"/>
      <path class="cls-1" d="M190.33,178.3c-.11-5.94-6.35-10.48-6.42-10.52l2.75-3.8c.34.24,8.23,5.92,8.39,14.24l-4.72.09Z"/>
    </g>
    <g>
      <path class="cls-1" d="M125.6,223.72c-.93,0-1.88-.18-2.78-.56l-82.23-34.5c-3.07-1.29-5.09-4.13-5.27-7.42-.18-3.29,1.51-6.34,4.41-7.95l32.53-18.04,91.45,33.31-1.78,4.74,1,1.17-32.78,27.59c-1.31,1.1-2.93,1.68-4.58,1.68ZM72.96,163.79l-29.37,16.29c-.28.16-.42.4-.4.72.02.32.18.55.48.68l81.78,34.32,27.27-22.95-79.76-29.05Z"/>
      <path class="cls-1" d="M199.26,225.24c-1.79,0-3.54-.67-4.88-1.93l-36.15-34.1,90.31-32.62,39.26,21.45c2.04,1.51,3.1,4,2.78,6.5-.32,2.5-1.99,4.65-4.34,5.6l-84.3,34.57c-.87.35-1.78.52-2.68.52ZM172.78,192.18l26.65,25.14,82.3-33.75-33.92-18.98-75.03,27.6ZM283.24,182.94s0,0,0,0h0Z"/>
      <polygon class="cls-1" points="158.48 288.2 158.48 190.9 166.35 190.9 166.35 277.16 256.09 245.63 256.09 197.14 263.96 197.14 263.96 251.14 158.48 288.2"/>
      <polygon class="cls-1" points="66.36 252.02 60.86 249.91 60.86 195.58 68.74 195.58 68.74 244.57 69.21 244.75 68.74 245.95 68.74 247.24 68.23 247.24 66.36 252.02"/>
      <polygon class="cls-1" points="158.48 288.2 63.34 250.88 66.15 243.6 163.76 280.6 158.48 288.2"/>
    </g>
    <g>
      <line class="cls-1" x1="74.25" y1="157.08" x2="117" y2="144.69"/>
      <polygon class="cls-1" points="74.04 161.16 72.27 155.23 116.12 141.7 117.89 147.68 74.04 161.16"/>
    </g>
    <g>
      <line class="cls-1" x1="249.07" y1="159.62" x2="202.51" y2="148.44"/>
      <polygon class="cls-1" points="248.32 162.65 201.77 151.47 204.67 145.41 248.54 156.59 248.32 162.65"/>
    </g>
  </g>
</svg>