<svg width="97" height="76" viewBox="0 0 97 76" fill="none" xmlns="http://www.w3.org/2000/svg">
<g clip-path="url(#clip0_1619_5373)">
<path d="M45.1957 23.755C44.868 23.755 44.5631 23.7465 44.2895 23.738C42.6681 23.6868 39.2969 23.5815 37.3763 20.8962C35.9628 18.9193 35.7805 16.1543 36.9089 13.8559C38.4164 10.7866 41.9899 9.59759 44.868 9.78249C45.7258 9.83653 50.0857 10.3002 51.8069 14.0806C53.0209 16.7489 52.4966 19.9689 50.5331 21.9118C48.8917 23.536 46.7773 23.7579 45.1929 23.7579L45.1957 23.755ZM38.0288 20.4326C39.7187 22.7964 42.708 22.8903 44.3152 22.9415C45.8768 22.9898 48.2363 23.0638 49.9718 21.3457C51.6759 19.6617 52.1404 16.7432 51.0803 14.4106C49.55 11.0455 45.5975 10.6273 44.8196 10.579C42.2121 10.4111 38.9749 11.4693 37.6299 14.2086C36.6439 16.2169 36.8035 18.7201 38.0288 20.4354V20.4326Z" fill="url(#paint0_linear_1619_5373)"/>
<path d="M42.0072 17.7473C42.3754 17.7473 42.674 17.4493 42.674 17.0816C42.674 16.714 42.3754 16.416 42.0072 16.416C41.6389 16.416 41.3403 16.714 41.3403 17.0816C41.3403 17.4493 41.6389 17.7473 42.0072 17.7473Z" fill="url(#paint1_linear_1619_5373)"/>
<path d="M46.0076 17.7473C46.3759 17.7473 46.6745 17.4493 46.6745 17.0816C46.6745 16.714 46.3759 16.416 46.0076 16.416C45.6394 16.416 45.3408 16.714 45.3408 17.0816C45.3408 17.4493 45.6394 17.7473 46.0076 17.7473Z" fill="url(#paint2_linear_1619_5373)"/>
<path d="M43.4972 18.5836C43.6339 18.2793 44.5002 18.2793 44.637 18.5836C44.7425 18.814 44.4831 19.3431 44.0671 19.3431C43.651 19.3431 43.3917 18.814 43.4972 18.5836Z" fill="url(#paint3_linear_1619_5373)"/>
<path d="M42.9984 20.4667C42.7021 20.4667 42.4342 20.3899 42.2091 20.2391C41.8928 20.0258 41.6962 19.6816 41.6392 19.2464L42.1692 19.1781C42.2062 19.4569 42.3231 19.6731 42.5112 19.8011C42.722 19.9461 43.0155 19.9746 43.3604 19.8892C43.6995 19.8039 43.8049 19.2407 43.8448 19.0273C43.8562 18.9648 43.8676 18.9192 43.8733 18.8965L44.3805 19.0586C44.3777 19.0728 44.372 19.0956 44.3663 19.1269C44.3093 19.4313 44.1583 20.242 43.4886 20.407C43.3176 20.4496 43.1523 20.4695 42.9984 20.4695V20.4667Z" fill="url(#paint4_linear_1619_5373)"/>
<path d="M45.3125 20.4241C45.1215 20.4241 44.9192 20.3899 44.7311 20.3074C44.4319 20.1766 44.0387 19.8694 43.8677 19.1554L44.3863 19.0302C44.4832 19.4341 44.6713 19.6987 44.9448 19.8182C45.2526 19.9547 45.6031 19.8751 45.7513 19.7926C45.7826 19.7755 45.9394 19.6674 46.0847 19.1582L46.0961 19.1212L46.6033 19.2919C46.4552 19.8011 46.2585 20.1197 46.0106 20.2562C45.8368 20.3529 45.586 20.4212 45.3125 20.4212V20.4241Z" fill="url(#paint5_linear_1619_5373)"/>
<path d="M39.4108 11.7908C37.8292 7.89655 37.8549 5.17145 38.0543 3.23145C38.2139 1.66978 38.4305 0.253178 39.311 0.0768146C40.6817 -0.19342 42.306 2.8389 42.8218 5.04913C43.3177 7.17118 43.4088 9.46675 43.0469 10.6302L42.2832 10.3941C42.5568 9.51511 42.5625 7.45848 42.041 5.23118C41.4682 2.77347 39.9408 0.768046 39.4678 0.861917C39.3566 0.884674 39.0717 1.16629 38.8522 3.31394C38.6613 5.16007 38.6385 7.76001 40.1545 11.4921L39.4136 11.7908H39.4108Z" fill="url(#paint6_linear_1619_5373)"/>
<path d="M40.0747 11.1109C39.0403 8.3033 38.9177 6.78146 39.0488 5.36201C39.16 4.15591 39.3081 3.14894 39.9693 3.00386C40.1061 2.97257 40.3198 2.97257 40.562 3.12618C41.3571 3.6382 41.9498 5.56967 42.1749 6.63069C42.4969 8.1497 42.2034 9.7455 41.9013 10.8151L41.1319 10.5989C41.3599 9.79386 41.6962 8.22934 41.3913 6.79568C41.055 5.20841 40.4509 4.01084 40.1516 3.80888C40.032 3.99662 39.9294 4.54278 39.8467 5.43597C39.7242 6.74732 39.8467 8.16676 40.827 10.835L40.0747 11.1109Z" fill="url(#paint7_linear_1619_5373)"/>
<path d="M48.7778 11.731L48.0369 11.4323C49.5529 7.70026 49.5272 5.10032 49.3391 3.25419C49.1197 1.10938 48.8348 0.82492 48.7236 0.802164C48.2449 0.705448 46.7232 2.71372 46.1504 5.17143C45.6317 7.39873 45.6346 9.45536 45.9082 10.3343L45.1444 10.5704C44.7825 9.407 44.8766 7.11143 45.3696 4.98938C45.8854 2.77914 47.5097 -0.253173 48.8803 0.0170611C49.758 0.193425 49.9746 1.60718 50.137 3.17169C50.3365 5.11169 50.3622 7.8368 48.7806 11.731H48.7778Z" fill="url(#paint8_linear_1619_5373)"/>
<path d="M48.1168 11.0512L47.3645 10.7753C48.3476 8.10704 48.4673 6.6876 48.3447 5.37625C48.2621 4.48305 48.1595 3.93689 48.0398 3.74915C47.7406 3.95112 47.1365 5.14868 46.8002 6.73596C46.4982 8.16962 46.8344 9.73414 47.0595 10.5392L46.2901 10.7553C45.9881 9.68578 45.6946 8.08997 46.0166 6.57097C46.2417 5.50994 46.8344 3.58132 47.6295 3.06645C47.8717 2.91 48.0854 2.91285 48.2222 2.94414C48.8833 3.08921 49.0315 4.09903 49.1426 5.30229C49.2737 6.72173 49.1512 8.24358 48.1168 11.0512Z" fill="url(#paint9_linear_1619_5373)"/>
<path d="M39.8042 24.9213L39.0034 24.9071C39.0291 23.4876 40.3684 22.5176 40.4254 22.475L40.8899 23.1264C40.8899 23.1264 39.8213 23.9086 39.8013 24.9242L39.8042 24.9213Z" fill="url(#paint10_linear_1619_5373)"/>
<path d="M49.0056 24.8331C48.9856 23.8176 47.9284 23.0439 47.917 23.0353L48.3843 22.3868C48.4413 22.4266 49.7778 23.3966 49.8063 24.8189L49.0056 24.8331Z" fill="url(#paint11_linear_1619_5373)"/>
<path d="M38.1828 32.5732C38.0232 32.5732 37.8636 32.5419 37.7126 32.4765L23.7834 26.5854C23.2648 26.3663 22.9228 25.8799 22.8915 25.3167C22.8601 24.7535 23.148 24.2329 23.6381 23.9598L29.1493 20.8792L44.6429 26.5683L44.3409 27.379L44.5119 27.5781L38.9579 32.2887C38.7356 32.4765 38.462 32.576 38.1828 32.576V32.5732ZM29.2633 22.3384L24.2878 25.1204C24.2394 25.146 24.2166 25.1887 24.2194 25.2427C24.2223 25.2968 24.2508 25.3366 24.2992 25.3594L38.1543 31.2192L42.7736 27.2994L29.2605 22.3384H29.2633Z" fill="url(#paint12_linear_1619_5373)"/>
<path d="M50.6613 32.8321C50.3592 32.8321 50.06 32.7183 49.8349 32.5021L43.7109 26.6792L59.0051 21.01L65.6619 24.7734C66.0067 25.0322 66.1862 25.4561 66.1321 25.8828C66.0779 26.3095 65.7958 26.6764 65.3969 26.8385L51.1172 32.741C50.969 32.8008 50.8151 32.8292 50.6641 32.8292L50.6613 32.8321ZM46.1759 27.1856L50.6898 31.478L64.6331 25.7149L58.8882 22.4721L46.1759 27.1856Z" fill="url(#paint13_linear_1619_5373)"/>
<path d="M43.751 43.5845V26.9694H45.0846V41.6986L60.2876 36.3138V28.0332H61.6212V37.2553L43.751 43.5845Z" fill="url(#paint14_linear_1619_5373)"/>
<path d="M28.1462 37.4061L27.2144 37.0449V27.7659H28.548V36.1318L28.6278 36.1631L28.548 36.3679V36.5897H28.4625L28.1462 37.4061Z" fill="url(#paint15_linear_1619_5373)"/>
<path d="M28.1116 35.9707L27.6348 37.2139L44.1719 43.5341L44.6488 42.2908L28.1116 35.9707Z" fill="url(#paint16_linear_1619_5373)"/>
<path d="M36.4307 18.5821L29.1885 20.6975L29.4878 21.7186L36.73 19.6032L36.4307 18.5821Z" fill="url(#paint17_linear_1619_5373)"/>
<path d="M51.1927 19.218L50.9414 20.2519L58.8283 22.1624L59.0797 21.1285L51.1927 19.218Z" fill="url(#paint18_linear_1619_5373)"/>
<path d="M8.38369 75.8364C5.27755 75.8364 2.10588 73.9902 0.265002 71.2282C-0.185244 70.5512 -0.076957 69.931 0.723798 69.3991L1.52455 68.8672C2.12868 68.5912 3.04057 68.9383 3.65895 69.6665C4.9071 71.3363 6.6169 72.531 8.38653 72.531C11.8802 72.531 14.3452 69.7575 14.3452 65.869V45.1776C14.3452 44.4408 14.9436 43.8434 15.6817 43.8434H16.7702C17.5083 43.8434 18.1067 44.4408 18.1067 45.1776V65.869C18.1067 71.726 14.0745 75.8392 8.38653 75.8392L8.38369 75.8364Z" fill="url(#paint19_linear_1619_5373)"/>
<path d="M22.3643 62.6205C22.3643 56.4506 26.4849 52.0671 32.264 52.0671C34.5038 52.0671 36.9688 53.185 38.7584 55.6001V52.0216H41.1435C41.8787 52.0216 42.4772 52.619 42.4772 53.3529V71.5269C42.4772 72.2608 41.8787 72.8581 41.1435 72.8581H38.7584V69.5044C36.9203 72.1413 34.5038 73.1255 32.264 73.1255C26.4849 73.1255 22.3643 68.742 22.3643 62.6176V62.6205ZM38.8039 62.6205C38.7584 58.4162 35.7577 55.3327 32.3979 55.3327C28.6791 55.3327 26.0831 58.2854 26.0831 62.6205C26.0831 66.9556 28.682 69.8656 32.3979 69.8656C35.7577 69.8656 38.7584 66.8248 38.8039 62.6205Z" fill="url(#paint20_linear_1619_5373)"/>
<path d="M62.5075 70.773L63.1173 71.3419C63.7556 71.9364 63.7072 72.9719 63.0033 73.4896C61.1425 74.8578 58.6262 75.7482 56.5431 75.7482C50.3166 75.7482 45.9253 71.322 45.9253 65.1948C45.9253 59.0676 50.3166 54.6414 56.5431 54.6414C58.6633 54.6414 61.1282 55.5631 62.9919 56.9427C63.6958 57.4632 63.7414 58.5044 63.0945 59.096L62.5075 59.6336C62.0145 60.0859 61.2622 60.1371 60.7293 59.7332C59.5011 58.7945 57.8312 58.2227 56.3607 58.2227C52.4197 58.2227 49.6412 61.0389 49.6412 65.1976C49.6412 69.3564 52.4197 72.1725 56.3607 72.1725C57.8255 72.1725 59.4925 71.6036 60.7179 70.6677C61.2536 70.261 62.0116 70.315 62.5046 70.7758L62.5075 70.773Z" fill="url(#paint21_linear_1619_5373)"/>
<path d="M70.8765 45.2856V74.1922C70.8765 74.9261 70.2809 75.5234 69.5429 75.5234H68.4914C67.7561 75.5234 67.1577 74.9289 67.1577 74.1922V45.2856C67.1577 44.5517 67.7533 43.9543 68.4914 43.9543H69.5429C70.2781 43.9543 70.8765 44.5489 70.8765 45.2856Z" fill="url(#paint22_linear_1619_5373)"/>
<path d="M81.9934 47.8628C81.6571 49.3107 80.3862 50.2266 78.7647 50.0702C77.4653 49.945 76.2399 48.7219 76.1145 47.4276C75.9578 45.809 76.8754 44.5403 78.3259 44.2047C80.4831 43.704 82.4949 45.7095 81.9934 47.8656V47.8628ZM80.9476 55.9727V74.1922C80.9476 74.9261 80.3491 75.5234 79.6139 75.5234H78.5624C77.8272 75.5234 77.2288 74.9261 77.2288 74.1922V55.9727C77.2288 55.2388 77.8272 54.6414 78.5624 54.6414H79.6139C80.3491 54.6414 80.9476 55.2388 80.9476 55.9727Z" fill="url(#paint23_linear_1619_5373)"/>
<path d="M88.2568 54.2233H85.7833C85.0481 54.2233 84.4497 53.6259 84.4497 52.892V52.2463C84.4497 51.5124 85.0481 50.915 85.7833 50.915H88.2568V45.0467C88.2568 44.3128 88.8553 43.7154 89.5905 43.7154H90.6876C91.4228 43.7154 92.0213 44.3128 92.0213 45.0467V50.915H95.6147C96.3499 50.915 96.9483 51.5124 96.9483 52.2463V52.892C96.9483 53.6259 96.3499 54.2233 95.6147 54.2233H92.0213V74.1922C92.0213 74.9261 91.4228 75.5234 90.6876 75.5234H89.5905C88.8553 75.5234 88.2568 74.9261 88.2568 74.1922V54.2233Z" fill="url(#paint24_linear_1619_5373)"/>
</g>
<defs>
<linearGradient id="paint0_linear_1619_5373" x1="36.1738" y1="16.7609" x2="52.4561" y2="16.7609" gradientUnits="userSpaceOnUse">
<stop stop-color="#2665E9"/>
<stop offset="1" stop-color="#0690B3"/>
</linearGradient>
<linearGradient id="paint1_linear_1619_5373" x1="41.3403" y1="17.0816" x2="42.674" y2="17.0816" gradientUnits="userSpaceOnUse">
<stop stop-color="#2665E9"/>
<stop offset="1" stop-color="#0690B3"/>
</linearGradient>
<linearGradient id="paint2_linear_1619_5373" x1="45.3408" y1="17.0816" x2="46.6745" y2="17.0816" gradientUnits="userSpaceOnUse">
<stop stop-color="#2665E9"/>
<stop offset="1" stop-color="#0690B3"/>
</linearGradient>
<linearGradient id="paint3_linear_1619_5373" x1="43.4736" y1="18.8492" x2="44.6606" y2="18.8492" gradientUnits="userSpaceOnUse">
<stop stop-color="#2665E9"/>
<stop offset="1" stop-color="#0690B3"/>
</linearGradient>
<linearGradient id="paint4_linear_1619_5373" x1="41.6392" y1="19.683" x2="44.3805" y2="19.683" gradientUnits="userSpaceOnUse">
<stop stop-color="#2665E9"/>
<stop offset="1" stop-color="#0690B3"/>
</linearGradient>
<linearGradient id="paint5_linear_1619_5373" x1="43.8677" y1="19.7271" x2="46.6033" y2="19.7271" gradientUnits="userSpaceOnUse">
<stop stop-color="#2665E9"/>
<stop offset="1" stop-color="#0690B3"/>
</linearGradient>
<linearGradient id="paint6_linear_1619_5373" x1="37.959" y1="5.92535" x2="43.2669" y2="5.92535" gradientUnits="userSpaceOnUse">
<stop stop-color="#2665E9"/>
<stop offset="1" stop-color="#0690B3"/>
</linearGradient>
<linearGradient id="paint7_linear_1619_5373" x1="39.0059" y1="7.04916" x2="42.315" y2="7.04916" gradientUnits="userSpaceOnUse">
<stop stop-color="#2665E9"/>
<stop offset="1" stop-color="#0690B3"/>
</linearGradient>
<linearGradient id="paint8_linear_1619_5373" x1="44.9253" y1="5.8656" x2="50.2324" y2="5.8656" gradientUnits="userSpaceOnUse">
<stop stop-color="#2665E9"/>
<stop offset="1" stop-color="#0690B3"/>
</linearGradient>
<linearGradient id="paint9_linear_1619_5373" x1="45.8765" y1="6.98915" x2="49.1856" y2="6.98915" gradientUnits="userSpaceOnUse">
<stop stop-color="#2665E9"/>
<stop offset="1" stop-color="#0690B3"/>
</linearGradient>
<linearGradient id="paint10_linear_1619_5373" x1="39.0034" y1="23.6996" x2="40.8899" y2="23.6996" gradientUnits="userSpaceOnUse">
<stop stop-color="#2665E9"/>
<stop offset="1" stop-color="#0690B3"/>
</linearGradient>
<linearGradient id="paint11_linear_1619_5373" x1="47.917" y1="23.6099" x2="49.8063" y2="23.6099" gradientUnits="userSpaceOnUse">
<stop stop-color="#2665E9"/>
<stop offset="1" stop-color="#0690B3"/>
</linearGradient>
<linearGradient id="paint12_linear_1619_5373" x1="22.8892" y1="26.7276" x2="44.6429" y2="26.7276" gradientUnits="userSpaceOnUse">
<stop stop-color="#2665E9"/>
<stop offset="1" stop-color="#0690B3"/>
</linearGradient>
<linearGradient id="paint13_linear_1619_5373" x1="43.7109" y1="26.921" x2="66.1416" y2="26.921" gradientUnits="userSpaceOnUse">
<stop stop-color="#2665E9"/>
<stop offset="1" stop-color="#0690B3"/>
</linearGradient>
<linearGradient id="paint14_linear_1619_5373" x1="43.751" y1="35.2769" x2="61.6212" y2="35.2769" gradientUnits="userSpaceOnUse">
<stop stop-color="#2665E9"/>
<stop offset="1" stop-color="#0690B3"/>
</linearGradient>
<linearGradient id="paint15_linear_1619_5373" x1="27.2144" y1="32.586" x2="28.6278" y2="32.586" gradientUnits="userSpaceOnUse">
<stop stop-color="#2665E9"/>
<stop offset="1" stop-color="#0690B3"/>
</linearGradient>
<linearGradient id="paint16_linear_1619_5373" x1="35.9034" y1="40.374" x2="36.3787" y2="39.1302" gradientUnits="userSpaceOnUse">
<stop stop-color="#2665E9"/>
<stop offset="1" stop-color="#0690B3"/>
</linearGradient>
<linearGradient id="paint17_linear_1619_5373" x1="29.3381" y1="21.208" x2="36.5783" y2="19.0857" gradientUnits="userSpaceOnUse">
<stop stop-color="#2665E9"/>
<stop offset="1" stop-color="#0690B3"/>
</linearGradient>
<linearGradient id="paint18_linear_1619_5373" x1="54.8849" y1="21.2071" x2="55.1354" y2="20.1731" gradientUnits="userSpaceOnUse">
<stop stop-color="#2665E9"/>
<stop offset="1" stop-color="#0690B3"/>
</linearGradient>
<linearGradient id="paint19_linear_1619_5373" x1="0.000976562" y1="59.8413" x2="18.1067" y2="59.8413" gradientUnits="userSpaceOnUse">
<stop stop-color="#2665E9"/>
<stop offset="1" stop-color="#0690B3"/>
</linearGradient>
<linearGradient id="paint20_linear_1619_5373" x1="22.3643" y1="62.5736" x2="42.4772" y2="62.5736" gradientUnits="userSpaceOnUse">
<stop stop-color="#2665E9"/>
<stop offset="1" stop-color="#0690B3"/>
</linearGradient>
<linearGradient id="paint21_linear_1619_5373" x1="45.9253" y1="65.1948" x2="63.5655" y2="65.1948" gradientUnits="userSpaceOnUse">
<stop stop-color="#2665E9"/>
<stop offset="1" stop-color="#0690B3"/>
</linearGradient>
<linearGradient id="paint22_linear_1619_5373" x1="67.1577" y1="59.7389" x2="70.8765" y2="59.7389" gradientUnits="userSpaceOnUse">
<stop stop-color="#2665E9"/>
<stop offset="1" stop-color="#0690B3"/>
</linearGradient>
<linearGradient id="paint23_linear_1619_5373" x1="76.0972" y1="59.8253" x2="82.071" y2="59.8253" gradientUnits="userSpaceOnUse">
<stop stop-color="#2665E9"/>
<stop offset="1" stop-color="#0690B3"/>
</linearGradient>
<linearGradient id="paint24_linear_1619_5373" x1="84.4497" y1="59.6194" x2="96.9483" y2="59.6194" gradientUnits="userSpaceOnUse">
<stop stop-color="#2665E9"/>
<stop offset="1" stop-color="#0690B3"/>
</linearGradient>
<clipPath id="clip0_1619_5373">
<rect width="96.9455" height="75.8364" fill="white"/>
</clipPath>
</defs>
</svg>
